<?xml version="1.0" encoding="utf-8"?>
<!DOCTYPE svg PUBLIC "-//W3C//DTD SVG 1.1//EN" "http://www.w3.org/Graphics/SVG/1.1/DTD/svg11.dtd">
<svg version="1.1" id="Layer_1" xmlns="http://www.w3.org/2000/svg" xmlns:xlink="http://www.w3.org/1999/xlink" x="0px" y="0px"
	 viewBox="261 0 1478 2000" enable-background="new 261 0 1478 2000" xml:space="preserve">
<g>
	<g id="_x23_1a1a1aff">
		<path fill="#1A1A1A" stroke="#1A1A1A" stroke-width="0.0938" d="M810.45,71.25c66.31-13.16,134.04-17.2,201.52-18.18
			c36.72-0.45,73.6-0.31,110.0701,4.48c20.77,2.91,41.4399,7.18,61.1899,14.31c20.88,7.38,40.74,17.98,57.8101,32.16
			c12.5699,10.48,24.89,21.26,37.23,32c29.66-4.71,59.8099-8.63,89.86-5.7c11.47,1.27,22.55,4.68,33.8,7.15
			c28.47,7.43,56.86,16.48,82.5299,31.12c17.1001,9.83,32.75,22.63,44.23,38.78c11.4901,15.8,18.64,34.24,24.0701,52.87
			c5.52,20.69,11.03,41.5,12.89,62.91c2.9399,27.54,1.5499,55.31-1.34,82.79c-2.91,23.45-6.8201,46.8-12.5801,69.73
			c-9.6699-16.83-22.4-31.77-36.75-44.79c-10.5-9.87-22.87-17.59-32.77-28.12c-14.97-15.51-24.88-35.25-31.2-55.7
			c-6.71-20.69-10.41-42.46-19.83-62.2c-6.75-14.59-17.7201-27.36-31.87-35.18c-16.88-9.96-36.53-12.81-55.25-17.49
			c-22.03-4.49-44.6201-7.77-67.14-5.85c-11.66,1.17-23.55,3.91-33.39,10.55c-8.37-15.03-22.54-25.61-36.8201-34.62
			c-41.5699-24.65-88.98-41.48-137.74-41.47c-25.24-0.34-50.39,3.28-74.9,9.14c-16.93,3.44-32.89,11.1-46.44,21.76
			c-15.51,11.31-29.37,24.67-44.58,36.36c-14.63,11.21-30.7,20.73-48.09,26.96c-21.9,8.36-45.76,9.15-68.92,8.5
			c-23.69-0.36-47.34-2.17-71.03-2.16c-28.02-0.47-56.81,1.81-82.86,12.87c-11.75,5.55-22.85,12.34-34.16,18.7
			c-14.44,8.19-29.06,16.45-41.34,27.74c-8.47,7.9-16.05,16.76-22.53,26.37c-4.23,6.13-8.72,12.1-12.36,18.61
			c-4.5,7.88-9.73,15.37-13.45,23.68c-5.82,12.26-9.15,25.49-12.35,38.63c-5.63,26.06-9.02,52.55-11.36,79.09
			c-1.2,11.3-2.02,22.62-2.56,33.96c-0.22,3.93,0.1,7.91-0.69,11.79c-0.76-6.24,0.85-12.59-0.82-18.73
			c-5.13-24.83-9.07-49.87-12.25-75.01c-5-44.19-6.64-89.17,0.57-133.21c3.95-22.16,10.03-44.24,20.99-64.03
			c7.87-15.93,20.56-28.63,31.56-42.36c11-11.97,21.89-24.12,34.13-34.86c11.86-10.67,24.48-20.53,37.95-29.11
			c27.66-18.69,58.13-32.66,88.61-46.04C723.27,91.96,766.48,79.36,810.45,71.25z"/>
		<path fill="#1A1A1A" stroke="#1A1A1A" stroke-width="0.0938" d="M1270.88,242.36c22.5599-5.65,46.3-6.39,69.23-2.67
			c20.4301,3.49,40.98,11.41,55.51,26.68c13.05,13.95,18.73,32.72,23.95,50.65c5.53,19.82,9.8501,40.33,19.75,58.57
			c10.79,18.54,25.7301,34.19,40.88,49.2c12.53,12.41,25.6901,24.25,37.13,37.7c11.4501,12.54,20.9,26.97,27.53,42.62
			c4.7001,11.72,6.67,24.38,7.28,36.94c1.75,27.8-1.4,55.62-5.4301,83.1c-6.97,43.59-17.52,86.53-29.46,129
			c-3.27,10.29-5.95,20.78-9.6,30.93c-0.6801-22.74-1.88-45.45-3.35-68.15c-3.67-48.25-8.03-96.62-18.38-143.97
			c-2.66-11.85-5.8501-23.58-9.76-35.08c-3.49-8.57-6.5801-17.43-12.01-25.01c-10.54-14.56-22.42-28.33-36.48-39.6
			c-15.8501-13.73-34.55-23.48-51.7101-35.37c-16.1-10.59-30.0699-24.01-45.75-35.16c-21.99-15.73-45.23-29.71-66.49-46.45
			c-7.25-6.36-15.6799-11.87-20.5399-20.46c-5.8101-10.2-7.7301-22.23-7.3-33.84c0.11-14.57,2.9-29.05,7.3099-42.91
			c1.0601-3.81,4.1001-6.58,7.3501-8.6C1256.77,246.59,1263.83,244.28,1270.88,242.36 M1274.73,282.13
			c4.3301,32.8,22.38,63.47,48.62,83.57c7.47,6.01,15.9601,10.55,23.78,16.07c13.63,9.86,25.62,21.77,36.96,34.15
			c10.67,11.35,20.89,23.43,33.87,32.24c8.77,5.42,18.7101,8.73,27.17,14.68c15.88,9.55,27.41,24.53,37.12,40.01
			c6.63,10.37,13.83,20.43,19.35,31.47c4.2001,8.55,8,17.32,10.72,26.46c7.53,22.72,11.9,46.47,13.2401,70.36
			c1.7-3.51,2.5599-7.35,3.71-11.06c6.4199-25.05,8.75-51.42,4.4299-77.03c-3.4399-19.66-10.46-39.1-22.5699-55.14
			c-24.53-30.42-57.86-52.19-82.96-82.07c-13.3401-15.64-17.76-36.28-22.52-55.72c-4.5701-17.91-8.7001-37.16-21.5801-51.2
			c-13.0199-13.19-29.6699-23.22-47.99-26.78C1315.25,267.94,1293.37,272.3,1274.73,282.13z"/>
		<path fill="#1A1A1A" stroke="#1A1A1A" stroke-width="0.0938" d="M1137.01,263.04c12.72-0.31,25.47-1.6,38.1899-0.75
			c-20.96,7.93-41.2899,17.46-61.13,27.87c-11.9099,6.81-24.08,13.41-34.5299,22.41c-5.64,4.67-10.0601,10.59-15.3501,15.62
			c-9.8899,9.12-21.11,16.7-32.85,23.22c-25.3,14.81-52.3099,26.43-79.4999,37.3c-11.58,4.43-23.05,9.14-34.83,13.03
			c-13.84,4.42-28.02,7.67-42.22,10.69c-43.25,8.35-88.06,12.78-131.74,5.03c-13.56-2.77-27.01-7.24-41.02-6.69
			c-20.9,0.12-41.09,8.18-58,20.13c-16.73,11.7-30.89,26.7-43.35,42.78c-26.31,34.94-46.34,74.34-61.49,115.28
			c0.49-3.92,2.41-7.42,3.61-11.14c3.1-9.09,6.87-17.93,10.48-26.83c12.14-30.49,26.67-60.07,43.89-88.03
			c9.02-14.58,19.16-28.45,30.28-41.5c12.75-14.44,27.38-27.65,44.77-36.24c16.02-7.88,34.09-9.95,51.7-11.03
			c28.35-1.25,56.69,1.17,85.03,1.67c24.19,0.3,49.04-0.26,72.05-8.61c13.4-5.09,25.87-12.41,37.63-20.57
			c26.64-17.76,51.03-38.74,78.31-55.57c13.84-8.55,28.9901-15.14,45.02-18.21C1073.26,266.74,1105.16,264.25,1137.01,263.04z"/>
		<path fill="#1A1A1A" stroke="#1A1A1A" stroke-width="0.0938" d="M1460.52,1017.56c19.35-36.6,38.01-74.17,47.39-114.73
			c0.4299,25.36,0.4099,50.73,0.3199,76.1c-0.14,26.35,0.0801,52.71-0.4199,79.06c-0.7001,46.0601-1.1901,92.13-3.6901,138.14
			c-1.5699,24.33,1.45,49.0699,9.87,72c6.3201,19.1,15.8,36.92,25.22,54.63c7.6901,14.53,15.78,29.09,20.0701,45.0599
			c2.95,11.4901,2.48,24.0601-2.76,34.8301c-6.74,14.03-18.73,24.7-31.2001,33.61c-8.71,6-17.0399,12.5699-26.1499,17.97
			c-8.6001,5.17-16.9,10.88-25.87,15.41c-5.63-13.78-18.2101-22.9301-30.51-30.4c-20.0701-11.7-41.9701-19.7-63.92-27.04
			c-38.59-12.4199-78.16-21.5299-117.91-29.34c-22.87-4.6799-45.96-8.1799-68.96-12.1899c-14.13-1.79-28.13-4.66-42.34-5.7101
			c-0.4501-0.0499-1.3401-0.1499-1.79-0.2l-1.04-0.08c-0.97,1.34-1.86,2.75-2.63,4.23c-13.21-3.27-26.6399-5.4401-40-7.98
			c4.14-17.62,7.51-35.4301,12.27-52.89c2.4501-8.77,5.16-17.4601,7.25-26.3201c40.05-10.34,79.0901-24.84,115.6801-44.2
			c63.84-33.3301,120.61-80.09,165.75-136.1801C1426.41,1075.4,1444.66,1047.08,1460.52,1017.56z"/>
		<path fill="#1A1A1A" stroke="#1A1A1A" stroke-width="0.0938" d="M490.06,917.59c8.21,29.19,19.23,57.5699,32.73,84.72
			c32.63,65.54,78.82,124.04,133.66,172.44c0.36-0.34,1.09-1.02,1.45-1.35c3.47,3.78,7.74,6.6899,11.74,9.9
			c59.81,47.7699,130.3,82.0299,204.76,99.74c1.6,7.0399,3.94,13.88,5.5699,20.9199c4.51,19.13,8.97,38.27,13.5,57.4
			c-12.35,2.28-24.72,4.4301-36.9399,7.34c-1.01-2.33-2.66-4.6899-5.54-3.6c-44.39,5.5801-88.66,12.28-132.67,20.3301
			c-40.96,7.8199-81.84,16.61-121.64,29.1599c-19.61,6.37-39.21,13.35-56.97,23.98c-7.64,4.78-15.36,10.1001-20.35,17.79
			c-4.65,7.04-5.4,15.66-7.62,23.62c-15.88-9.6-31.22-20.25-45.01-32.71c-11.83-10.87-22.51-24.46-24.94-40.78
			c-2.01-12.6799,1.43-25.34,5.52-37.24c8.19-22.05,18.92-43.08,26.79-65.26c7.13-18.8099,12.11-38.37,15.74-58.14
			c3.63-21.08,4.66-42.51,4.44-63.88C494.84,1093.83,492.72,1005.69,490.06,917.59z"/>
	</g>
	<g id="_x23_ccccccff">
		<path fill="#CCCCCC" stroke="#CCCCCC" stroke-width="0.0938" d="M994.07,169.94c24.51-5.86,49.66-9.48,74.9-9.14
			c48.76-0.01,96.17,16.82,137.74,41.47c14.28,9.01,28.4501,19.59,36.8201,34.62c9.84-6.64,21.73-9.38,33.39-10.55
			c22.5199-1.92,45.11,1.36,67.14,5.85c18.72,4.68,38.37,7.53,55.25,17.49c14.1499,7.82,25.12,20.59,31.87,35.18
			c9.4199,19.74,13.12,41.51,19.83,62.2c6.3199,20.45,16.23,40.19,31.2,55.7c9.9,10.53,22.27,18.25,32.77,28.12
			c14.35,13.02,27.0801,27.96,36.75,44.79c10.37,18.28,17.11,39.14,16.4301,60.31c-1.4301,23.89-3.5701,47.74-6.3,71.51
			c-5.98,49.66-14.5599,99.02-26.0499,147.7c-0.51,2.23-1.04,4.46-1.52,6.7c-6.9601,29.75-14.92,59.27-24.01,88.43
			c-2.26,6.56-4.11,13.27-6.64,19.73c-1.35-54.75-4.11-109.5-9.8101-163.98c-2.08-23.42-5.2799-46.72-9.09-69.92
			c-3.53-19.58-7.41-39.17-13.5599-58.12c-4.8201-17-13.67-32.45-22.39-47.6801c-9.41-16.03-20.4601-31.38-34.61-43.58
			c-11.9701-10.45-25.88-18.25-39.0701-26.98c-17.63-10.98-34.38-23.33-50.15-36.83c-13.25-11.45-26.1699-23.36-40.6599-33.27
			c-10.02-7.18-20.91-12.97-31.27-19.61c-7.26-4.63-13.7101-10.87-17.24-18.83c-6.8501-15.1-8.41-31.84-10.52-48.09
			c-0.6901-5.11-1.37-10.21-1.74-15.34c-28.85,26.11-59.28,50.56-91.88,71.86c-33.23,21.88-68.54,40.62-105.38,55.63
			c-56.63,23.29-116.58,37.79-177.15,46.1c-23.79,2.7-47.67-0.85-71.16-4.5c-27.27-3.92-54.37-9.61-81.98-10.56
			c-15.84-0.51-32.15,0.56-46.98,6.61c-10.13,4.07-18.16,11.73-25.6,19.49c-18.9901,20.07-32.61,44.37-44.97,68.88
			c-25.85,53.72-43.78,110.85-58.73,168.45c-4.89,20.54-10.3,40.96-14.19,61.73c-1.83,6.75-2.96,13.67-4.33,20.53
			c-4.57-23.54-7.8-47.31-11.66-70.96c-4.92-35.23-10.33-70.54-10.74-106.17c0.75-20.7,1.04-41.45,2.57-62.11
			c0.79-3.88,0.47-7.86,0.69-11.79c0.54-11.34,1.36-22.66,2.56-33.96c2.34-26.54,5.73-53.03,11.36-79.09
			c3.2-13.14,6.53-26.37,12.35-38.63c3.72-8.31,8.95-15.8,13.45-23.68c3.64-6.51,8.13-12.48,12.36-18.61
			c6.48-9.61,14.06-18.47,22.53-26.37c12.28-11.29,26.9-19.55,41.34-27.74c11.31-6.36,22.41-13.15,34.16-18.7
			c26.05-11.06,54.84-13.34,82.86-12.87c23.69-0.01,47.34,1.8,71.03,2.16c23.16,0.65,47.02-0.14,68.92-8.5
			c17.39-6.23,33.46-15.75,48.09-26.96c15.21-11.69,29.07-25.05,44.58-36.36C961.18,181.04,977.14,173.38,994.07,169.94 M958,224.8
			c-33.57,15.62-64.12,36.72-95.99,55.38c-5.52,3.15-10.78,6.76-16.58,9.37c-7.99,3.91-16.63,6.21-25.28,8.12
			c-25.67,5.36-51.96,6.25-78.07,7.57c-24.36,1.1-48.76,1.29-73.06,3.36c-12.2,0.85-24.52,2.24-36.2,6.05
			c-18.6,5.26-35.66,15.36-49.99,28.26c-15.08,13.62-27.14,30.28-36.9,48.03c-18.32,33.9-28.9,71.4-36.02,109.1
			c-9.26,52.39-12.49,105.76-11.2,158.93c0.39,9.34,0.33,18.73,1.53,28.01c7.78-29.27,16.79-58.19,26.06-87.02
			c7.83-22.31,15.06-44.84,23.66-66.88c14.28-37.27,30.08-74.16,50.64-108.46c9.63-15.2,20.16-30.49,34.89-41.21
			c15.01-10.31,31.82-18.07,49.54-22.37c22.22-5.48,45.23-6.21,67.99-7.33c32.98-1.2,65.97-2.28,98.9-4.42
			c7.04-0.74,13.64-3.47,20.1-6.22c15.84-7.26,30.81-16.29,45.56-25.54c27.58-17.37,53.99-36.49,80.44-55.5
			c12.75-9.08,28.36-12.48,43.38-15.72c19.35-3.9,39.03-5.59,58.65-7.48c26.34-2.03,52.75-3.1,79.1699-3.3
			c-6.0599-5.37-13.02-9.57-19.62-14.22c-6.3099-4.48-12.98-8.44-19.6899-12.28c-12.49-6.62-25.53-13.31-39.8401-14.52
			c-11.6599-1.3-23.4099-0.65-35.0699,0.15C1027.96,198.53,991.79,209.27,958,224.8 M1270.88,242.36
			c-7.05,1.92-14.11,4.23-20.34,8.12c-3.25,2.02-6.29,4.79-7.3501,8.6c-4.4099,13.86-7.2,28.34-7.3099,42.91
			c-0.4301,11.61,1.49,23.64,7.3,33.84c4.86,8.59,13.2899,14.1,20.5399,20.46c21.26,16.74,44.5,30.72,66.49,46.45
			c15.6801,11.15,29.65,24.57,45.75,35.16c17.16,11.89,35.86,21.64,51.7101,35.37c14.0599,11.27,25.9399,25.04,36.48,39.6
			c5.4299,7.58,8.52,16.44,12.01,25.01c3.9099,11.5,7.1,23.23,9.76,35.08c10.35,47.35,14.71,95.72,18.38,143.97
			c1.47,22.7,2.6699,45.41,3.35,68.15c3.65-10.15,6.33-20.64,9.6-30.93c11.9399-42.47,22.49-85.41,29.46-129
			c4.03-27.48,7.1801-55.3,5.4301-83.1c-0.61-12.56-2.58-25.22-7.28-36.94c-6.63-15.65-16.08-30.08-27.53-42.62
			c-11.4399-13.45-24.6-25.29-37.13-37.7c-15.1499-15.01-30.09-30.66-40.88-49.2c-9.8999-18.24-14.22-38.75-19.75-58.57
			c-5.22-17.93-10.8999-36.7-23.95-50.65c-14.53-15.27-35.08-23.19-55.51-26.68C1317.1801,235.97,1293.4399,236.71,1270.88,242.36
			 M1137.01,263.04c-31.85,1.21-63.75,3.7-95.05,9.86c-16.0299,3.07-31.1799,9.66-45.02,18.21c-27.28,16.83-51.67,37.81-78.31,55.57
			c-11.76,8.16-24.23,15.48-37.63,20.57c-23.01,8.35-47.86,8.91-72.05,8.61c-28.34-0.5-56.68-2.92-85.03-1.67
			c-17.61,1.08-35.68,3.15-51.7,11.03c-17.39,8.59-32.02,21.8-44.77,36.24c-11.12,13.05-21.26,26.92-30.28,41.5
			c-17.22,27.96-31.75,57.54-43.89,88.03c-3.61,8.9-7.38,17.74-10.48,26.83c-1.2,3.72-3.12,7.22-3.61,11.14
			c15.15-40.94,35.18-80.34,61.49-115.28c12.46-16.08,26.62-31.08,43.35-42.78c16.91-11.95,37.1-20.01,58-20.13
			c14.0099-0.55,27.46,3.92,41.02,6.69c43.68,7.75,88.49,3.32,131.74-5.03c14.2-3.02,28.38-6.27,42.22-10.69
			c11.78-3.89,23.25-8.6,34.83-13.03c27.19-10.87,54.2-22.49,79.4999-37.3c11.74-6.52,22.9601-14.1,32.85-23.22
			c5.29-5.03,9.7101-10.95,15.3501-15.62c10.45-9,22.62-15.6,34.5299-22.41c19.8401-10.41,40.17-19.94,61.13-27.87
			C1162.48,261.44,1149.73,262.73,1137.01,263.04z"/>
		<path fill="#CCCCCC" stroke="#CCCCCC" stroke-width="0.0938" d="M1274.73,282.13c18.64-9.83,40.52-14.19,61.35-9.99
			c18.3201,3.56,34.9701,13.59,47.99,26.78c12.88,14.04,17.01,33.29,21.5801,51.2c4.76,19.44,9.1799,40.08,22.52,55.72
			c25.1,29.88,58.4299,51.65,82.96,82.07c12.11,16.04,19.13,35.48,22.5699,55.14c4.3201,25.61,1.99,51.98-4.4299,77.03
			c-1.15,3.71-2.01,7.55-3.71,11.06c-1.3401-23.89-5.7101-47.64-13.2401-70.36c-2.72-9.14-6.5199-17.91-10.72-26.46
			c-5.52-11.04-12.72-21.1-19.35-31.47c-9.71-15.48-21.24-30.46-37.12-40.01c-8.46-5.95-18.4-9.26-27.17-14.68
			c-12.98-8.81-23.2-20.89-33.87-32.24c-11.34-12.38-23.33-24.29-36.96-34.15c-7.8199-5.52-16.3101-10.06-23.78-16.07
			C1297.11,345.6,1279.0601,314.93,1274.73,282.13z"/>
		<path fill="#CCCCCC" stroke="#CCCCCC" stroke-width="0.0938" d="M1143.51,664.42c34.11-27.98,78.03-45.07,122.46-43.15
			c41.1801,1.11,81.29,18.39,111.48,46.21c1.65,2.48,2.74,5.28,3.5,8.16c-10.2899-1.44-20.6899-1.9-31.0299-2.84
			c-11.17-0.9-22.36-1.99-33.5801-1.83c-7.02-15.34-19.0599-28.36-33.9099-36.4c-17.5701-9.62-38.9401-11.96-58.1801-6.33
			c-26.15,7.31-47.27,29.4-53.96,55.65c-12.0601,3.44-23.63,8.33-35.14,13.25c-6.35,3-12.89,5.61-18.99,9.09
			c-2.7101,1.52-5.54,2.81-8.4,3.99c0.62-3.4399,1.64-6.8,2.98-10.02c1.66-3.86,3.29-7.81,6.05-11.04
			C1125.3,680.49,1133.9301,671.92,1143.51,664.42z"/>
		<path fill="#CCCCCC" stroke="#CCCCCC" stroke-width="0.0938" d="M684.06,629.82c40.1-10.75,83.96-6.46,121.2,11.87
			c25.12,11.9,47.06,29.68,65.74,50.12c2.28,2.93,3.71,6.39,5.22,9.76c1.42,3.37,2.53,6.88,3.22,10.48
			c-11.74-5.36-23.09-11.57-35.1-16.33c-9.03-3.68-18.16-7.1299-27.47-10.0099c-4.36-16.46-14.08-31.51-27.54-41.9901
			c-12.83-10.14-28.95-16.0699-45.3-16.52c-14.92-0.53-29.95,3.46-42.67,11.27c-13.46,8.2-24.33,20.57-30.74,34.97
			c-2.17-0.51-4.38-0.8-6.6-0.62c-19.22,0.93-38.37,3.07-57.57,4.31c0.71-2.69,1.73-5.31,3.24-7.66
			C631.07,650.9,656.62,636.97,684.06,629.82z"/>
	</g>
	<g id="_x23_000000ff">
		<path stroke="#000000" stroke-width="0.0938" d="M958,224.8c33.79-15.53,69.96-26.27,107-30.14c11.66-0.8,23.41-1.45,35.0699-0.15
			c14.3101,1.21,27.3501,7.9,39.8401,14.52c6.71,3.84,13.38,7.8,19.6899,12.28c6.6,4.65,13.5601,8.85,19.62,14.22
			c-26.4199,0.2-52.83,1.27-79.1699,3.3c-19.62,1.89-39.3,3.58-58.65,7.48c-15.02,3.24-30.63,6.64-43.38,15.72
			c-26.45,19.01-52.86,38.13-80.44,55.5c-14.75,9.25-29.72,18.28-45.56,25.54c-6.46,2.75-13.06,5.48-20.1,6.22
			c-32.93,2.14-65.92,3.22-98.9,4.42c-22.76,1.12-45.77,1.85-67.99,7.33c-17.72,4.3-34.53,12.06-49.54,22.37
			c-14.73,10.72-25.26,26.01-34.89,41.21c-20.56,34.3-36.36,71.19-50.64,108.46c-8.6,22.04-15.83,44.57-23.66,66.88
			c-9.27,28.83-18.28,57.75-26.06,87.02c-1.2-9.28-1.14-18.67-1.53-28.01c-1.29-53.17,1.94-106.54,11.2-158.93
			c7.12-37.7,17.7-75.2,36.02-109.1c9.76-17.75,21.82-34.41,36.9-48.03c14.33-12.9,31.39-23,49.99-28.26
			c11.68-3.81,24-5.2,36.2-6.05c24.3-2.07,48.7-2.26,73.06-3.36c26.11-1.32,52.4-2.21,78.07-7.57c8.65-1.91,17.29-4.21,25.28-8.12
			c5.8-2.61,11.06-6.22,16.58-9.37C893.88,261.52,924.43,240.42,958,224.8z"/>
		<path stroke="#000000" stroke-width="0.0938" d="M1338.84,627.54c9.7001-8.2599,18.54-17.67,25.2201-28.57
			c-5.04,11.89-11.28,23.2401-16.7101,34.96c2.9,2.26,5.4501,5.01,8.61,6.95c12.3501-10.02,22.8201-22.37,31-36
			c-6.2799,15.07-13.76,29.62-20.3999,44.53c-0.6901,1.21-0.1001,2.51,0.1699,3.75c16.5801-8.52,32.15-19.39,44.59-33.37
			c0.4401-0.42,1.3201-1.28,1.76-1.71c-0.84,1.25-1.6899,2.48-2.5399,3.72c-11.0901,15.18-21.8401,30.62-33.0901,45.68
			c-30.1899-27.82-70.2999-45.1-111.48-46.21c-44.4299-1.92-88.35,15.17-122.46,43.15c-9.58,7.5-18.21,16.07-26.72,24.74
			c5.6899-9.1,11.77-17.96,18.6899-26.18c20.97-25.16,49.16-44.65,80.8101-53.57c16.12-4.6,32.97-6.84,49.74-6.12
			c21.47,0.84,42.6,7.04,61.4,17.38C1331.28,622.87,1334.99,625.32,1338.84,627.54z"/>
		<path stroke="#000000" stroke-width="0.0938" d="M624.24,603.68c6.22,9.78,13.85,18.63,22.61,26.23
			c23.45-16.53,52.34-24.79,80.96-23.87c32.82,1.15,65.07,12.37,91.76,31.45c10.2,7.27,19.64,15.6,28.25,24.69
			c8.57,9.19,15.98,19.35,23.18,29.63c-18.68-20.44-40.62-38.22-65.74-50.12c-37.24-18.33-81.1-22.62-121.2-11.87
			c-27.44,7.15-52.99,21.08-74.37,39.65c-8.5-11.5099-16.74-23.21-25.15-34.78c-3.47-4.94-7.09-9.77-10.54-14.72
			c3.66,3.34,6.78,7.22,10.42,10.59c10.84,9.62,22.86,17.95,35.88,24.34c0.2-1.41,0.83-2.87,0.05-4.2
			c-6.68-14.63-13.7-29.12-20.24-43.81c2.95,3.82,5.07,8.2,8.13,11.93c6.65,8.74,14.24,16.77,22.64,23.85
			c2.88-2.48,5.78-4.94,8.56-7.54C634.3,624.68,628.96,614.32,624.24,603.68z"/>
		<path stroke="#000000" stroke-width="0.0938" d="M1220.29,660.24c15.2899-9.52,36.1499-9.56,51.22,0.47
			c-6.15,6.29-6.13,17.4,0.4,23.41c5.4,5.44,14.58,5.89,20.72,1.41c1.61,6.03,3.53,12.0699,3.37,18.39
			c0.04,8.28-2.21,16.46-5.89,23.84c-29.7-0.05-59.4,0-89.1-0.02c-3.58-7.73-6.1-16.16-5.74-24.76
			C1195.75,685.75,1205.29,668.91,1220.29,660.24z"/>
		<path stroke="#000000" stroke-width="0.0938" d="M726.37,657.45c12.85-4.14,27.37-2.8,39.15,3.83
			c-3.65,3.1899-6.11,7.8199-6.09,12.75c-0.22,7.41,5.24,14.5699,12.54,16.09c5.57,1.4,11.59-0.66,15.52-4.77
			c2.5,6.2401,4.38,12.82,4.44,19.59c0.34,7.89-1.84,15.56-4.78,22.8c-30.41-0.01-60.81,0.02-91.22-0.01
			c-2.67-6.99-4.99-14.31-4.73-21.89c0.06-9.16,2.78-18.26,7.42-26.13C704.78,669.24,714.91,661.34,726.37,657.45z"/>
	</g>
	<g id="_x23_bd6b33ff">
		<path fill="#BD6B33" stroke="#BD6B33" stroke-width="0.0938" d="M1131.65,359.68c32.6-21.3,63.03-45.75,91.88-71.86
			c0.37,5.13,1.0499,10.23,1.74,15.34c2.11,16.25,3.6699,32.99,10.52,48.09c3.5299,7.96,9.98,14.2,17.24,18.83
			c10.36,6.64,21.25,12.43,31.27,19.61c14.49,9.91,27.4099,21.82,40.6599,33.27c15.77,13.5,32.52,25.85,50.15,36.83
			c13.1901,8.73,27.1,16.53,39.0701,26.98c14.1499,12.2,25.2,27.55,34.61,43.58c8.72,15.23,17.5699,30.6801,22.39,47.6801
			c6.1499,18.95,10.0299,38.54,13.5599,58.12c3.8101,23.2,7.01,46.5,9.09,69.92c5.7001,54.48,8.4601,109.23,9.8101,163.98
			c2.53-6.46,4.38-13.17,6.64-19.73c0.76,2.15,1.2,4.41,1.13,6.72c-0.15,9.02,0.24,18.05-0.4701,27.06
			c-0.6,6.3-2.2,12.45-3.0299,18.73c-9.38,40.56-28.04,78.13-47.39,114.73c-15.86,29.52-34.11,57.84-55.37,83.78
			c0.24-3.49,2.09-6.48,3.7999-9.4199c17.01-32.8,34.76-65.2001,52.03-97.86c8.25-16.62,16.88-33.35,20.46-51.72
			c4.4301-23.2401,6.4601-46.85,8.8101-70.38c4.38-50.55,4.29-101.58-1.5-152.02c-7.16-59.98-22.67-119.46-50.42-173.33
			c-8.38-16.85-18.2-33.09-30.25-47.58c-22.1799-27.48-52.2799-46.91-82.4299-64.55c-24.7001-14.92-49.74-29.53-72.03-47.97
			c-7.73-6.6-16.2-12.6-22-21.09c-8.34-12.02-13.49-25.84-18.76-39.39c-0.21-0.69-1.3099-2.55-1.96-1.12
			c-21.37,27.78-47.41,51.65-75.24,72.82c-13.17,9.24-26.29,18.62-40.3401,26.53c-45.8099,26.58-96.97,44.07-149.6199,50.27
			c-16.14,2.31-32.46,2.67-48.74,3.21c-7,0.15-13.98-0.67-20.98-0.67c-20-0.76-39.84-3.53-59.61-6.53
			c-46.82-7.11-95.91-7.03-141.07,8.7c-32.43,11.03-61.8,30.98-83.59,57.46c-9.76,11.81-18.09,24.78-24.7401,38.58l-0.28,0.52
			c-7.83,15.18-13.1,31.61-16.52,48.32c-5.56,25.83-10.17,51.86-14.99,77.84c-7.51,39.6-14.14,79.37-21.29,119.04
			c-2.82,16.87-7,33.74-5.97,50.99c1.5,31.05,10.18,61.26,20.71,90.34c6.02,16.73,13.45,32.88,20.84,49.04
			c2.85,6.92,6.76,13.3,10.1801,19.9401c4.23,8.8899,9.04,17.49,14.14,25.9099c4.51,7.2101,8.35,14.8301,13.26,21.79
			c15.84,24.4299,32.65,48.26,50.88,70.98c6.33,8.0701,12.35,16.46,19.97,23.41c-0.36,0.33-1.09,1.01-1.45,1.35
			c-54.84-48.4-101.03-106.9-133.66-172.44c-13.5-27.15-24.52-55.53-32.73-84.72c-2.52-10.19-4.89-20.44-6.72-30.78
			c-3.66,3.24-7.21,6.66-11.44,9.17c-0.22-0.49-0.66-1.49-0.88-1.99c15.85-31.74,25.84-66.18,31.94-101.05
			c1.23-7.09,3.46-14.16,2.55-21.43c3.89-20.77,9.3-41.19,14.19-61.73c14.95-57.6,32.88-114.73,58.73-168.45
			c12.36-24.51,25.98-48.81,44.97-68.88c7.44-7.76,15.47-15.42,25.6-19.49c14.83-6.05,31.14-7.12,46.98-6.61
			c27.61,0.95,54.71,6.64,81.98,10.56c23.49,3.65,47.37,7.2,71.16,4.5c60.57-8.31,120.52-22.81,177.15-46.1
			C1063.11,400.3,1098.42,381.56,1131.65,359.68z"/>
	</g>
	<g id="_x23_cd7f4bff">
		<path fill="#CD7F4B" stroke="#CD7F4B" stroke-width="0.0938" d="M1210.9,324.91c0.65-1.43,1.75,0.43,1.96,1.12
			c5.27,13.55,10.42,27.37,18.76,39.39c5.8,8.49,14.27,14.49,22,21.09c22.29,18.44,47.33,33.05,72.03,47.97
			c30.15,17.64,60.25,37.07,82.4299,64.55c12.05,14.49,21.87,30.73,30.25,47.58c27.75,53.87,43.26,113.35,50.42,173.33
			c5.79,50.44,5.88,101.47,1.5,152.02c-2.35,23.53-4.38,47.14-8.8101,70.38c-3.58,18.37-12.21,35.1-20.46,51.72
			c-17.27,32.66-35.02,65.06-52.03,97.86c-1.71,2.9399-3.5599,5.9299-3.7999,9.4199c-45.14,56.0901-101.91,102.85-165.75,136.1801
			c-36.59,19.36-75.63,33.86-115.6801,44.2c-9.0499,1.8-17.9399,4.26-27.03,5.8101c-73.2999,14.2999-149.6199,12.65-222.2899-4.49
			c-74.46-17.7101-144.95-51.9701-204.76-99.74c-4-3.2101-8.27-6.12-11.74-9.9c-7.62-6.9501-13.64-15.34-19.97-23.41
			c-18.23-22.72-35.04-46.55-50.88-70.98c-4.91-6.96-8.75-14.58-13.26-21.79c-5.1-8.4199-9.91-17.02-14.14-25.9099
			c-3.42-6.64-7.33-13.0201-10.1801-19.9401c-7.39-16.16-14.8199-32.31-20.84-49.04c-10.53-29.08-19.21-59.29-20.71-90.34
			c-1.03-17.25,3.15-34.12,5.97-50.99c7.15-39.67,13.78-79.44,21.29-119.04c4.82-25.98,9.43-52.01,14.99-77.84
			c3.42-16.71,8.69-33.14,16.52-48.32c11.24-2.1,22.55-3.75,33.9-5.2c-0.6,2.29-1.26,4.57-2.11,6.79
			c-4.66,12.13-7.98,24.72-10.91,37.37c-1.31,5.21-1.53,10.65-3.15,15.8c-3.64-3.37-6.76-7.25-10.42-10.59
			c3.45,4.95,7.07,9.78,10.54,14.72c-2.95,21.61-1.14,44.26,7.34,64.49c5.44,12.86,14.97,23.32,25.49,32.26
			c-11.08,8.58-15.34,22.83-17.67,36.07c-2.98,20.03-2.08,41.22,5.72,60.11c4.13,9.65,12.08,19.74,23.54,19.82
			c90.03,0.53,180.07,1.04,270.1,0.05c5.38-0.06,10.78-1.96,14.69-5.72c10.19-9.66,13.86-23.98,15.98-37.39
			c23.23-6.19,47.36-8.68,71.37-8.08c22.9,0.58,45.87,3.86,67.62,11.25c2.27,10.95,5.1901,22.36,12.5801,31.08
			c4.1699,5.41,10.71,8.95,17.61,8.85c86.38,0.42,172.75,0.99,259.13,0.1c7.1599-0.2,15,0.9,21.39-3.16
			c7.1899-4.69,11.72-12.47,14.6399-20.36c5.6101-15.62,6.77-32.56,5.3-49c-1.08-10.21-3.1899-20.47-7.6899-29.75
			c-3.4401-6.96-8.62-13.64-16.0901-16.46c4.6801-5.08,10.0901-9.5,14.01-15.25c12.59-17.28,17.91-38.67,20.15-59.63
			c0.9399-10.6899,1.72-21.46,0.79-32.17c0.85-1.24,1.7-2.47,2.5399-3.72c-0.4399,0.43-1.3199,1.29-1.76,1.71
			c-0.83-3.54-1.1899-7.16-1.36-10.79c-0.8199-14.14-3.0699-28.15-5.76-42.04c-1.35-9.28-4.25-18.2401-5.63-27.5
			c9.16,3.49,18.1801,7.41,26.8501,12.0099c3.86,2,7.64,4.23,11.7899,5.63c-13.8099-9.59-28.34-18.08-42.9099-26.47
			c-18.62-10.07-37.8101-19.44-58.27-25.14c-19.8-5.54-40.91-7.23-61.17-3.27c-17.12,2.75-33.53,8.7-49.51,15.28
			c-18.0399,7.49-35.4,16.46-53.0499,24.79c-17.9801,8.69-35.92,17.45-53.87,26.18c-11.0801,5.42-22.14,11.3101-31.3401,19.64
			c-3.63,3.43-7.25,7.25-8.8199,12.1c-1,2.86-0.26,6.42,2.41,8.12c4.5199,2.92,10.23,2.68,15.3899,2.31
			c14.3301-1.49,27.78-7.05,41.0601-12.3c-1.12,4-4.21,6.86-6.62,10.08c-6.8,9.83-12.4301,20.46-16.28,31.8
			c-5.48,15.69-7.96,32.28-9.29,48.8c-0.33,4.53,3.4801,7.72,5.8,11.18c-1.34,3.22-2.36,6.58-2.98,10.02
			c-1.0701,5.78-1.09,11.69-0.34,17.52c-5.9401,0.11-12.24-0.66-17.77,1.99c-5.02,2.33-8.75,6.7-11.7101,11.25
			c-6.7599,10.97-8.97,23.94-10.4399,36.54l-0.9-0.17c-11.52-1.92-22.96-4.41-34.6-5.4c-33.84-3.86-68.23-2.26-101.71,3.89
			c-1.2599-12.32-3.89-24.91-10.6-35.51c-3.99-6.14-10.03-11.73-17.66-12.35c-7.36-0.54-14.7401-0.1-22.11-0.23
			c0.74-5.23,0.38-10.52-0.48-15.7c-0.69-3.6-1.8-7.11-3.22-10.48c3.8-2.86,5.76-7.29,8.32-11.16c0.93-1.72,2.29-3.4,2.33-5.43
			c-1.73-17.54-3.11-35.22-7.47-52.36c-1.14-4.29-2.53-8.5-3.6801-12.78l1.46-0.45c8.91,0.99,18.25,1.64,26.88-1.34
			c4.08-1.46,8.35-4.41,9.05-9.01c0.62-4.85-2.43-9.22-5.76-12.4c-5.8199-5.41-13.2599-8.63-20.74-11
			c-39.13-11.7-78.5-22.85-118.63-30.58c-12.1-2.13-24.22-4.23-36.46-5.37c-25.8-2.92-52.09-2.06-77.53,3.24
			c-21.75,4.34-42.88,11.15-64.37,16.52c-7.55,1.97-15.12,3.81-22.65,5.83c6.65-13.8,14.98-26.77,24.7401-38.58
			c21.79-26.48,51.16-46.43,83.59-57.46c45.16-15.73,94.25-15.81,141.07-8.7c19.77,3,39.61,5.77,59.61,6.53
			c7,0,13.98,0.82,20.98,0.67c16.28-0.54,32.6-0.9,48.74-3.21c52.65-6.2,103.81-23.69,149.6199-50.27
			c14.05-7.91,27.17-17.29,40.3401-26.53C1163.49,376.56,1189.53,352.69,1210.9,324.91 M1064.9,897.91
			c1.16,7.48,4.28,14.52,5.16,22.07c0.6299,5.4,1.3799,11.18-0.76,16.35c-1.3401,3.18-4.74,4.73-7.9701,5.17
			c-11.58,1.19-22.3999-8.01-33.96-4c-10.65,3.93-18.83,13.19-30.23,15.34c-7.46,1.43-14.53-2.39-20.36-6.6201
			c-6.9-4.91-13.95-10.91-22.82-11.29c-6.76-0.26-12.22,4.25-17.93,7.15c-4.0601,2.08-8.63,4.9-13.34,3.33
			c-5.73-2.5099-7.74-9.64-6.8-15.4c0.87-8.83,5.57-16.49,9.29-24.33c-6.47,5.82-11.1,13.68-13.71,21.95
			c-2.52,7.36-1.23,16.02,3.82,22.01c2.85,3.38,7.4901,5,11.84,4.18c8.65-1.5,15.75-7.13,23.89-10.07c2.92-1.23,5.84,0.58,8.4,1.85
			c10.34,5.9301,20.54,13.05,32.55,15.01c9.2401,1.44,18.05-3.04,25.38-8.21c5.19-3.31,9.88-8.36,16.3101-8.94
			c7.9099,1.52,15.0699,6.14,23.2799,6.38c7.7201,0.61,16.03-3.45,19.0801-10.8c3.35-7.81,0.77-16.43-1.96-23.99
			C1071.52,909.1,1069.08,902.92,1064.9,897.91 M928.05,1035.75c-21.07,1.75-41.14,9.37-62.17,11.39c-1.87-0.02-3.22,1.25-4.12,2.76
			c5.8,7.74,10.6,16.1799,16.38,23.9399c6.53,8.99,13.83,17.4501,22.17,24.8201c5.36,4.75,11.98,7.6599,18.31,10.86
			c31.35,14.14,66.12,20.7999,100.48,18.98c23.39-1.91,46.59-7.0601,68.3201-16.02c7.5699-3.13,15.24-6.26,21.97-11.02
			c16.11-11.4199,28.9299-26.71,40.7-42.3999c3.7201-5.5901,8.11-10.79,11.01-16.8601c-14.5599,3.12-29.62,4.42-44.4199,2.25
			c-9.1001-1.51-17.9501-4.1799-26.9901-5.95c-9.7599-1.75-19.8899-1.89-29.59,0.29c-14.95,2.25-29.37,6.89-44.1,10.14
			c-5.61,1-11.39,3.2899-17.07,1.36c-11.41-3.4301-22.49-7.8401-33.85-11.4401C953.29,1034.46,940.4,1034.46,928.05,1035.75z"/>
	</g>
	<g id="_x23_502d16ff">
		<path fill="#502D16" stroke="#502D16" stroke-width="0.0938" d="M1274.86,502.22c20.26-3.96,41.37-2.27,61.17,3.27
			c20.46,5.7,39.65,15.07,58.27,25.14c14.5699,8.39,29.1,16.88,42.9099,26.47c-4.1499-1.4-7.9299-3.63-11.7899-5.63
			c-8.67-4.6-17.6901-8.52-26.8501-12.0099c-17.2-6.4901-35.1899-11.2401-53.58-12.4901c-24.41-1.84-48.89,3.09-71.8,11.3
			c-18.2,6.38-35.5,14.93-53.0199,22.89c-9.39,4.28-18.7101,8.7-28.0601,13.06c-18.03,8.7-36.36,16.77-54.98,24.1201
			c-13.28,5.25-26.73,10.81-41.0601,12.3c-5.1599,0.37-10.87,0.61-15.3899-2.31c-2.67-1.7-3.41-5.26-2.41-8.12
			c1.5699-4.85,5.1899-8.67,8.8199-12.1c9.2001-8.33,20.26-14.22,31.3401-19.64c17.95-8.73,35.8899-17.49,53.87-26.18
			c17.6499-8.33,35.01-17.3,53.0499-24.79C1241.33,510.92,1257.74,504.97,1274.86,502.22z"/>
		<path fill="#502D16" stroke="#502D16" stroke-width="0.0938" d="M653.99,552.93c25.44-5.3,51.73-6.16,77.53-3.24
			c12.24,1.14,24.36,3.24,36.46,5.37c40.13,7.73,79.5,18.88,118.63,30.58c7.48,2.37,14.92,5.59,20.74,11
			c3.33,3.18,6.38,7.55,5.76,12.4c-0.7,4.6-4.97,7.55-9.05,9.01c-8.63,2.98-17.97,2.33-26.88,1.34
			c-13.31-1.72-26.16-5.74-39.08-9.19c-30.67-8.09-61.05-17.21-91.66-25.54c-18.55-5.4-37.39-9.95-56.48-13.0099
			c-29.52-4.97-59.71-4.57-89.37-1.05c-11.35,1.45-22.66,3.1-33.9,5.2l0.28-0.52c7.53-2.02,15.1-3.86,22.65-5.83
			C611.11,564.08,632.24,557.27,653.99,552.93z"/>
		<path fill="#502D16" stroke="#502D16" stroke-width="0.0938" d="M1167.62,703.79c9.13-1.55,18.4401-0.77,27.65-0.81
			c-0.36,8.6,2.16,17.03,5.74,24.76c-9.98,0.08-19.95-0.07-29.92,0.01C1168.6801,720,1167.6,711.89,1167.62,703.79z"/>
		<path fill="#502D16" stroke="#502D16" stroke-width="0.0938" d="M1296,703.92c9.22-0.23,18.4301,0.26,27.66,0.12
			c0.13,8.03-1.27,16.02-3.48,23.72c-10.02-0.05-20.05-0.02-30.0701,0C1293.79,720.38,1296.04,712.2,1296,703.92z"/>
		<path fill="#502D16" stroke="#502D16" stroke-width="0.0938" d="M791.93,704.94c9.21-0.04,18.53-0.73,27.66,0.81
			c0.11,7.41-0.98,14.81-2.91,21.96c-9.84,0.07-19.69-0.01-29.53,0.03C790.09,720.5,792.27,712.83,791.93,704.94z"/>
		<path fill="#502D16" stroke="#502D16" stroke-width="0.0938" d="M663.54,706.05c9.22-0.02,18.44-0.35,27.66-0.21
			c-0.26,7.58,2.06,14.9,4.73,21.89c-9.83-0.01-19.67,0.06-29.5-0.01C664.55,720.65,663.53,713.36,663.54,706.05z"/>
	</g>
	<g id="_x23_ab673bff">
		<path fill="#AB673B" stroke="#AB673B" stroke-width="0.0938" d="M1273.1899,538.27c22.91-8.21,47.39-13.14,71.8-11.3
			c18.39,1.25,36.38,6,53.58,12.4901c1.38,9.2599,4.28,18.22,5.63,27.5c2.6901,13.89,4.9401,27.9,5.76,42.04
			c0.17,3.63,0.53,7.25,1.36,10.79c-12.4399,13.98-28.0099,24.85-44.59,33.37c-0.27-1.24-0.86-2.54-0.1699-3.75
			c6.6399-14.91,14.12-29.46,20.3999-44.53c-8.1799,13.63-18.6499,25.98-31,36c-3.1599-1.94-5.71-4.69-8.61-6.95
			c5.4301-11.72,11.67-23.07,16.7101-34.96c-6.6801,10.9-15.52,20.3101-25.2201,28.57c-3.85-2.22-7.5599-4.67-11.4099-6.87
			c0.2-1.47-0.04-2.91-0.9801-4.07c-11.2799-16.48-21.9299-33.38-33.5-49.66c-5.47-8.16-10.95-16.32-16.3199-24.55
			C1275.6,540.91,1274.38,539.59,1273.1899,538.27z"/>
	</g>
	<g id="_x23_b26d3fff">
		<path fill="#B26D3F" stroke="#B26D3F" stroke-width="0.0938" d="M1220.17,561.16c17.5199-7.96,34.8199-16.5099,53.0199-22.89
			c1.1901,1.32,2.41,2.64,3.4401,4.12c5.37,8.23,10.85,16.39,16.3199,24.55c11.5701,16.28,22.2201,33.18,33.5,49.66
			c0.9401,1.16,1.1801,2.6,0.9801,4.07c-18.8-10.34-39.9301-16.54-61.4-17.38c-16.77-0.72-33.62,1.52-49.74,6.12
			c-4.5701-7.85-10.01-15.15-14.88-22.8199c-3.03-4.17-5.2201-9.07-9.3-12.3701C1201.46,569.86,1210.78,565.44,1220.17,561.16z"/>
	</g>
	<g id="_x23_ac683bff">
		<path fill="#AC683B" stroke="#AC683B" stroke-width="0.0938" d="M600.59,570.6c29.66-3.52,59.85-3.92,89.37,1.05
			c19.09,3.06,37.93,7.61,56.48,13.0099c-5.96,6.91-12.88,12.91-19.11,19.57c0.12,0.45,0.36,1.35,0.48,1.81
			c-28.62-0.92-57.51,7.34-80.96,23.87c-8.7599-7.6-16.39-16.45-22.61-26.23c4.72,10.64,10.06,21,15.2,31.45
			c-2.78,2.6-5.68,5.06-8.56,7.54c-8.4-7.08-15.99-15.11-22.64-23.85c-3.06-3.73-5.18-8.11-8.13-11.93
			c6.54,14.69,13.56,29.18,20.24,43.81c0.78,1.33,0.15,2.79-0.05,4.2c-13.02-6.39-25.04-14.72-35.88-24.34
			c1.62-5.15,1.84-10.59,3.15-15.8c2.93-12.65,6.25-25.24,10.91-37.37C599.33,575.17,599.99,572.89,600.59,570.6z"/>
		<path fill="#AC683B" stroke="#AC683B" stroke-width="0.0938" d="M584.54,634.69c8.41,11.57,16.65,23.27,25.15,34.78
			c-1.51,2.35-2.53,4.97-3.24,7.66c-2.48,10.31-1.47,21.46,3.36,30.96c3.66,7.72,9.58,14.0099,15.65,19.91
			c-2.84,0.78-5.57,1.92-8.09,3.44c-10.52-8.94-20.05-19.4-25.49-32.26C583.4,678.95,581.59,656.3,584.54,634.69z"/>
	</g>
	<g id="_x23_bd7544ff">
		<path fill="#BD7544" stroke="#BD7544" stroke-width="0.0938" d="M1137.13,598.34c18.62-7.35,36.95-15.42,54.98-24.1201
			c4.08,3.3,6.27,8.2,9.3,12.3701c4.87,7.67,10.3099,14.97,14.88,22.8199c-31.65,8.92-59.8401,28.41-80.8101,53.57
			c-3.66-6.94-8.41-13.22-12.65-19.8c-1.6899-3.09-5.73-2.11-8.6-2.96c3.85-11.34,9.48-21.97,16.28-31.8
			C1132.92,605.2,1136.01,602.34,1137.13,598.34z"/>
	</g>
	<g id="_x23_b87142ff">
		<path fill="#B87142" stroke="#B87142" stroke-width="0.0938" d="M746.44,584.66c30.61,8.33,60.99,17.45,91.66,25.54
			c-7.2,8.38-11.93,18.48-18.53,27.29c-26.69-19.08-58.94-30.3-91.76-31.45c-0.12-0.46-0.36-1.36-0.48-1.81
			C733.56,597.57,740.48,591.57,746.44,584.66z"/>
	</g>
	<g id="_x23_ce7f4aff">
		<path fill="#CE7F4A" stroke="#CE7F4A" stroke-width="0.0938" d="M409.36,622.49c9.14-10.38,21.53-19.01,35.7-19.94
			c12.43-1.05,24.39,4.5,33.72,12.36c0.41,35.63,5.82,70.94,10.74,106.17c3.86,23.65,7.09,47.42,11.66,70.96
			c1.37-6.86,2.5-13.78,4.33-20.53c0.91,7.27-1.32,14.34-2.55,21.43c-6.1,34.87-16.09,69.31-31.94,101.05
			c0.22,0.5,0.66,1.5,0.88,1.99c-9.15,5.8-20.33,8.77-31.1,6.74c-14.1-2.5099-25.78-12.09-34.49-23.03
			c-12.22-15.44-20.06-33.87-25.59-52.63c-6.68-23.07-9.7-47.11-9.98-71.09c-0.22-26.02,2.73-52.18,9.97-77.21
			C386.74,658.52,395.3,638.5,409.36,622.49 M409.53,701.86c-5.83,19.61-10.38,39.73-11.78,60.19c-0.24,12.99-0.58,26.11,2.1,38.9
			c3.93,22.06,13.75,42.63,25.81,61.35c1.28,2.16,2.55,4.41,4.54,6.04c-1.23-4.79-4.3-8.8-6.23-13.3
			c-8.45-16.18-12.98-34.7-11.12-52.97c0.7-7.19,1.18-14.82,5.25-21.04c3.62-6.05,7.25-13.54,14.82-15.1801
			c10.6-2.2,22.15,1.03,32.32-3.42c-9.97-3.84-20.48-7.07-31.27-6.59c-7.63,0.08-15,2.92-20.95,7.6299
			c-2.57-2.2-4.35-5.18-5.08-8.48c-3.3-13.72-1.54-27.99,0.48-41.75C408.75,709.46,410.64,705.62,409.53,701.86z"/>
		<path fill="#CE7F4A" stroke="#CE7F4A" stroke-width="0.0938" d="M1561.86,607.49c11.17,2.78,20.76,9.89,28.34,18.36
			c11.4801,12.86,19.3,28.54,25.16,44.63c7.87,22.03,11.9501,45.29,13.4,68.6c1.5,26.45-0.26,53.15-6.15,79.01
			c-5.25,22.47-13.4299,44.7-27.27,63.37c-8.0299,10.49-18.34,20-31.21,23.94c-9.91,3.14-20.95,2.11-30.25-2.4301
			c-9.09-4.2599-16.58-11.24-22.9401-18.87c0.7101-9.0099,0.3201-18.04,0.4701-27.06c0.0699-2.31-0.37-4.57-1.13-6.72
			c9.09-29.16,17.0499-58.68,24.01-88.43c8.39,0.97,17.34-0.9,25.2999,2.57c6.5,4.67,10.53,12.07,13.67,19.27
			c2.72,9.14,3.1899,18.8,2.91,28.28c-0.3501,13.25-4.5601,26.09-10.1801,37.99c-2.6799,6.22-6.5699,11.85-9.05,18.15
			c4.5-4.77,7.3501-10.77,10.9701-16.19c11.0499-18.69,19.5599-39.25,22.23-60.94c3.39-25.91-0.33-52.2-6.8101-77.34
			c-1.73-5.64-2.6699-11.55-5.2-16.92c2.11,14.76,5.49,29.57,4.38,44.58c-0.64,6.83-0.96,14.94-6.96,19.47
			c-5-4.1-11.0701-6.94-17.54-7.57c-7.47-0.95-14.86,0.84-22.2,1.95C1547.3,706.51,1555.88,657.15,1561.86,607.49z"/>
	</g>
	<g id="_x23_c07745ff">
		<path fill="#C07745" stroke="#C07745" stroke-width="0.0938" d="M819.57,637.49c6.6-8.81,11.33-18.91,18.53-27.29
			c12.92,3.45,25.77,7.47,39.08,9.19l-1.46,0.45c-3.6899,3.48-5.8799,8.1299-8.56,12.36c-6.52,9.94-12.92,19.96-19.34,29.98
			C839.21,653.09,829.77,644.76,819.57,637.49z"/>
	</g>
	<g id="_x23_c57a48ff">
		<path fill="#C57A48" stroke="#C57A48" stroke-width="0.0938" d="M867.16,632.2c2.6801-4.23,4.8701-8.88,8.56-12.36
			c1.15,4.28,2.54,8.49,3.6801,12.78c4.36,17.14,5.74,34.82,7.47,52.36c-0.04,2.03-1.4,3.71-2.33,5.43
			c-2.56,3.8701-4.52,8.3-8.32,11.16c-1.5099-3.37-2.9399-6.83-5.22-9.76c-7.2-10.28-14.61-20.44-23.18-29.63
			C854.24,652.16,860.64,642.14,867.16,632.2z"/>
	</g>
	<g id="_x23_ac693cff">
		<path fill="#AC693C" stroke="#AC693C" stroke-width="0.0938" d="M1377.45,667.48c11.25-15.06,22-30.5,33.0901-45.68
			c0.9299,10.71,0.1499,21.48-0.79,32.17c-2.24,20.96-7.5601,42.35-20.15,59.63c-3.9199,5.75-9.33,10.17-14.01,15.25
			c-5.2-1.37-10.61-1.09-15.9199-1.12c8.23-6.93,15.59-15.34,19.49-25.49c3.39-8.42,3.64-17.8,1.7899-26.6
			C1380.1899,672.76,1379.1,669.96,1377.45,667.48z"/>
	</g>
	<g id="_x23_784421ff">
		<path fill="#784421" stroke="#784421" stroke-width="0.0938" d="M1224.25,628.24c19.24-5.63,40.61-3.29,58.1801,6.33
			c14.85,8.04,26.8899,21.06,33.9099,36.4c4.8201,10.33,7.01,21.71,7.3201,33.07c-9.23,0.14-18.4401-0.35-27.66-0.12
			c0.16-6.32-1.76-12.36-3.37-18.39c7.59-5.5601,8.8099-17.61,2.24-24.41c-5.88-6.78-17.1899-6.82-23.36-0.41
			c-15.0701-10.03-35.9301-9.9901-51.22-0.47c-15,8.67-24.54,25.51-25.02,42.74c-9.21,0.04-18.52-0.74-27.65,0.81
			c0.26-6.7,0.92-13.41,2.67-19.9C1176.98,657.64,1198.1,635.55,1224.25,628.24z"/>
		<path fill="#784421" stroke="#784421" stroke-width="0.0938" d="M701.36,638.47c12.72-7.81,27.75-11.8,42.67-11.27
			c16.35,0.45,32.47,6.38,45.3,16.52c13.46,10.48,23.18,25.53,27.54,41.9901c1.77,6.53,2.4,13.3,2.72,20.04
			c-9.13-1.54-18.45-0.85-27.66-0.81c-0.06-6.77-1.94-13.35-4.44-19.59c5.62-6.18,5.64-16.55-0.3-22.52
			c-5.46-6.02-15.35-6.53-21.67-1.55c-11.78-6.63-26.3-7.97-39.15-3.83c-11.46,3.89-21.59,11.79-27.75,22.26
			c-4.64,7.87-7.36,16.97-7.42,26.13c-9.22-0.14-18.44,0.19-27.66,0.21c0.27-11.19,2.39-22.4,7.08-32.61
			C677.03,659.04,687.9,646.67,701.36,638.47z"/>
	</g>
	<g id="_x23_c67a48ff">
		<path fill="#C67A48" stroke="#C67A48" stroke-width="0.0938" d="M1104.9399,689.02c1.3301-16.52,3.8101-33.11,9.29-48.8
			c2.87,0.85,6.91-0.1299,8.6,2.96c4.24,6.58,8.99,12.86,12.65,19.8c-6.9199,8.22-13,17.08-18.6899,26.18
			c-2.76,3.23-4.39,7.1801-6.05,11.04C1108.42,696.74,1104.61,693.55,1104.9399,689.02z"/>
	</g>
	<g id="_x23_f9f9f9ff">
		<path fill="#F9F9F9" stroke="#F9F9F9" stroke-width="0.0938" d="M1271.51,660.71c6.17-6.41,17.48-6.37,23.36,0.41
			c6.5699,6.8,5.35,18.85-2.24,24.41c-6.14,4.48-15.3199,4.03-20.72-1.41C1265.38,678.11,1265.36,667,1271.51,660.71z"/>
		<path fill="#F9F9F9" stroke="#F9F9F9" stroke-width="0.0938" d="M765.52,661.28c6.32-4.98,16.21-4.47,21.67,1.55
			c5.94,5.97,5.92,16.34,0.3,22.52c-3.93,4.11-9.95,6.17-15.52,4.77c-7.3-1.52-12.7599-8.68-12.54-16.09
			C759.41,669.1,761.87,664.47,765.52,661.28z"/>
	</g>
	<g id="_x23_e6e6e6ff">
		<path fill="#E6E6E6" stroke="#E6E6E6" stroke-width="0.0938" d="M1316.34,670.97c11.2201-0.16,22.41,0.9301,33.5801,1.83
			c10.34,0.94,20.74,1.4,31.0299,2.84c1.8501,8.8,1.6001,18.18-1.7899,26.6c-3.9,10.15-11.26,18.56-19.49,25.49
			c-13.16,0.04-26.3301,0-39.49,0.03c2.21-7.7,3.61-15.69,3.48-23.72C1323.35,692.68,1321.16,681.3,1316.34,670.97z"/>
		<path fill="#E6E6E6" stroke="#E6E6E6" stroke-width="0.0938" d="M606.45,677.13c19.2-1.24,38.35-3.38,57.57-4.31
			c2.22-0.18,4.43,0.11,6.6,0.62c-4.69,10.21-6.81,21.42-7.08,32.61c-0.0099,7.31,1.01,14.6,2.89,21.67
			c-13.66,0.21-27.33-0.3-40.97,0.28c-6.07-5.9-11.9901-12.19-15.65-19.91C604.98,698.59,603.97,687.44,606.45,677.13z"/>
		<path fill="#E6E6E6" stroke="#E6E6E6" stroke-width="0.0938" d="M1135.15,697.14c11.51-4.92,23.08-9.81,35.14-13.25
			c-1.75,6.49-2.41,13.2-2.67,19.9c-0.02,8.1,1.0601,16.21,3.47,23.96c-21.23-0.01-42.45,0.01-63.6699-0.01
			c-0.75-5.83-0.7301-11.74,0.34-17.52c2.86-1.18,5.6899-2.47,8.4-3.99C1122.26,702.75,1128.8,700.14,1135.15,697.14z"/>
		<path fill="#E6E6E6" stroke="#E6E6E6" stroke-width="0.0938" d="M816.87,685.71c9.31,2.88,18.44,6.33,27.47,10.0099
			c12.0099,4.76,23.36,10.97,35.1,16.33c0.86,5.18,1.22,10.47,0.48,15.7c-21.08-0.02-42.16,0.04-63.24-0.04
			c1.93-7.15,3.02-14.55,2.91-21.96C819.27,699.01,818.64,692.24,816.87,685.71z"/>
	</g>
	<g id="_x23_be6d32ff">
		<path fill="#BE6D32" stroke="#BE6D32" stroke-width="0.0938" d="M1578.13,696.76c2.53,5.37,3.47,11.28,5.2,16.92
			c6.4801,25.14,10.2001,51.43,6.8101,77.34c-2.67,21.69-11.1801,42.25-22.23,60.94c-3.62,5.42-6.4701,11.42-10.9701,16.19
			c2.4801-6.3,6.3701-11.9301,9.05-18.15c5.62-11.9,9.83-24.74,10.1801-37.99c0.2799-9.48-0.1901-19.14-2.91-28.28
			c-3.14-7.2-7.17-14.6-13.67-19.27c-7.96-3.47-16.9099-1.6-25.2999-2.57c0.48-2.24,1.01-4.47,1.52-6.7
			c7.34-1.11,14.73-2.9,22.2-1.95c6.47,0.63,12.54,3.47,17.54,7.57c6-4.53,6.3199-12.64,6.96-19.47
			C1583.62,726.33,1580.24,711.52,1578.13,696.76z"/>
	</g>
	<g id="_x23_bb6a35ff">
		<path fill="#BB6A35" stroke="#BB6A35" stroke-width="0.0938" d="M409.53,701.86c1.11,3.76-0.78,7.6-1.11,11.38
			c-2.02,13.76-3.78,28.03-0.48,41.75c0.73,3.3,2.51,6.28,5.08,8.48c5.95-4.71,13.32-7.55,20.95-7.6299
			c10.79-0.48,21.3,2.75,31.27,6.59c-10.17,4.45-21.72,1.22-32.32,3.42c-7.57,1.64-11.2,9.13-14.82,15.1801
			c-4.07,6.22-4.55,13.85-5.25,21.04c-1.86,18.27,2.67,36.79,11.12,52.97c1.93,4.5,5,8.51,6.23,13.3c-1.99-1.63-3.26-3.88-4.54-6.04
			c-12.06-18.72-21.88-39.29-25.81-61.35c-2.68-12.79-2.34-25.91-2.1-38.9C399.15,741.59,403.7,721.47,409.53,701.86z"/>
	</g>
	<g id="_x23_374548ff">
		<path fill="#374548" stroke="#374548" stroke-width="0.0938" d="M666.43,727.72c9.83,0.07,19.67,0,29.5,0.01
			c30.41,0.03,60.81,0,91.22,0.01c9.84-0.04,19.69,0.04,29.53-0.03c21.08,0.08,42.16,0.02,63.24,0.04
			c7.37,0.13,14.75-0.31,22.11,0.23c7.6299,0.62,13.67,6.21,17.66,12.35c6.71,10.6,9.34,23.19,10.6,35.51
			c0.87,9.5,0.55,19.0699-0.56,28.54c-2.12,13.41-5.79,27.73-15.98,37.39c-3.91,3.76-9.31,5.66-14.69,5.72
			c-90.03,0.99-180.07,0.48-270.1-0.05c-11.46-0.08-19.41-10.17-23.54-19.82c-7.8-18.89-8.7-40.08-5.72-60.11
			c2.33-13.24,6.59-27.49,17.67-36.07c2.52-1.52,5.25-2.66,8.09-3.44C639.1,727.42,652.77,727.93,666.43,727.72 M624.41,733.54
			c-7.31,2.54-11.67,9.71-14.67,16.42c-5.09,12.33-6.7,25.82-6.61,39.07c0.27,13.28,2.13,26.87,7.98,38.93
			c3.57,7.06,9.56,14.58,18.25,14.5099c89.88,0.46,179.76,1.03,269.64,0.01c4.56,0.02,9.12-1.84,12.22-5.22
			c5.48-5.5,8.57-12.85,10.73-20.18c3.86-13.98,4.65-28.71,3.1-43.1c-1.41-11.53-4.02-23.48-11.05-33
			c-3.46-4.85-8.91-8.53-15.07-8.21c-87.65-0.04-175.31,0-262.96-0.02C632.11,732.8,628.15,732.43,624.41,733.54z"/>
		<path fill="#374548" stroke="#374548" stroke-width="0.0938" d="M1089.65,729.73c5.53-2.65,11.83-1.88,17.77-1.99
			c21.22,0.02,42.4399,0,63.6699,0.01c9.9701-0.08,19.9401,0.07,29.92-0.01c29.7,0.02,59.4-0.03,89.1,0.02
			c10.02-0.02,20.05-0.05,30.0701,0c13.1599-0.03,26.33,0.01,39.49-0.03c5.3099,0.03,10.72-0.25,15.9199,1.12
			c7.4701,2.82,12.65,9.5,16.0901,16.46c4.5,9.28,6.61,19.54,7.6899,29.75c1.47,16.44,0.3101,33.38-5.3,49
			c-2.9199,7.89-7.45,15.67-14.6399,20.36c-6.39,4.06-14.2301,2.96-21.39,3.16c-86.38,0.89-172.75,0.32-259.13-0.1
			c-6.9,0.1-13.4401-3.44-17.61-8.85c-7.39-8.72-10.3101-20.13-12.5801-31.08c-0.62-5.17-1.4399-10.34-1.4099-15.56
			c-0.13-4.88,0.5599-9.86-0.7101-14.64l0.9,0.17c1.47-12.6,3.6801-25.57,10.4399-36.54
			C1080.9,736.43,1084.63,732.06,1089.65,729.73 M1093.4399,733.58c-4.6299,1.49-7.95,5.32-10.6599,9.15
			c-6.36,9.91-8.74,21.74-9.97,33.29c-1.2401,14.06-0.3301,28.42,3.58,42.03c2.4399,7.87,6.0499,15.82,12.5599,21.15
			c3.66,2.94,8.51,3.48,13.0601,3.33c89,0.33,178.01,1.04,267.01-0.1c8.49-0.1,14.4-7.47,17.88-14.44
			c5.9399-12.05,7.72-25.68,8.0599-38.97c0.0701-11.8-1.23-23.73-5.0499-34.94c-2.49-7.06-6.1901-14.12-12.3401-18.63
			c-5.1399-3.6-11.6799-2.56-17.5599-2.7c-85,0-170,0.01-255,0C1101.14,732.8,1097.17,732.43,1093.4399,733.58z"/>
	</g>
	<g id="_x23_dbe2e3ff">
		<path fill="#DBE2E3" stroke="#DBE2E3" stroke-width="0.0938" d="M624.41,733.54c3.7401-1.11,7.7-0.74,11.56-0.79
			c87.65,0.02,175.3101-0.02,262.96,0.02c6.16-0.32,11.61,3.36,15.07,8.21c7.03,9.52,9.64,21.47,11.05,33
			c1.55,14.39,0.76,29.12-3.1,43.1c-2.16,7.33-5.25,14.68-10.73,20.18c-3.1,3.38-7.66,5.24-12.22,5.22
			c-89.88,1.02-179.76,0.45-269.64-0.01c-8.69,0.07-14.68-7.45-18.25-14.5099c-5.85-12.06-7.71-25.65-7.98-38.93
			c-0.09-13.25,1.52-26.7401,6.61-39.07C612.74,743.25,617.1,736.08,624.41,733.54z"/>
		<path fill="#DBE2E3" stroke="#DBE2E3" stroke-width="0.0938" d="M1093.4399,733.58c3.7301-1.15,7.7001-0.78,11.5701-0.83
			c85,0.01,170,0,255,0c5.88,0.14,12.42-0.9,17.5599,2.7c6.15,4.51,9.8501,11.57,12.3401,18.63
			c3.8199,11.21,5.12,23.14,5.0499,34.94c-0.34,13.29-2.12,26.92-8.0599,38.97c-3.48,6.97-9.39,14.34-17.88,14.44
			c-89,1.14-178.01,0.43-267.01,0.1c-4.55,0.15-9.4-0.39-13.0601-3.33c-6.51-5.33-10.12-13.28-12.5599-21.15
			c-3.91-13.61-4.8201-27.97-3.58-42.03c1.23-11.55,3.61-23.38,9.97-33.29C1085.49,738.9,1088.8101,735.07,1093.4399,733.58z"/>
	</g>
	<g id="_x23_1c2224ff">
		<path fill="#1C2224" stroke="#1C2224" stroke-width="0.0938" d="M930.29,775.84c33.48-6.15,67.87-7.75,101.71-3.89
			c11.64,0.99,23.08,3.48,34.6,5.4c1.27,4.78,0.5801,9.76,0.7101,14.64c-0.03,5.22,0.7899,10.39,1.4099,15.56
			c-21.75-7.39-44.72-10.67-67.62-11.25c-24.0099-0.6-48.14,1.89-71.37,8.08C930.84,794.91,931.16,785.34,930.29,775.84z"/>
	</g>
	<g id="_x23_a55d2dff">
		<path fill="#A55D2D" stroke="#A55D2D" stroke-width="0.0938" d="M1064.9,897.91c4.1799,5.01,6.62,11.19,9.16,17.14
			c2.73,7.56,5.3099,16.18,1.96,23.99c-3.05,7.35-11.36,11.41-19.0801,10.8c-8.21-0.2401-15.37-4.86-23.2799-6.38
			c-6.4301,0.58-11.1201,5.63-16.3101,8.94c-7.33,5.17-16.14,9.65-25.38,8.21c-12.0099-1.96-22.21-9.08-32.55-15.01
			c-2.56-1.27-5.48-3.08-8.4-1.85c-8.14,2.94-15.24,8.57-23.89,10.07c-4.35,0.82-8.99-0.8-11.84-4.18
			c-5.05-5.99-6.34-14.65-3.82-22.01c2.61-8.27,7.2401-16.13,13.71-21.95c-3.72,7.84-8.42,15.5-9.29,24.33
			c-0.94,5.76,1.07,12.89,6.8,15.4c4.71,1.57,9.28-1.25,13.34-3.33c5.71-2.9,11.17-7.41,17.93-7.15
			c8.87,0.38,15.92,6.38,22.82,11.29c5.83,4.23,12.9,8.05,20.36,6.6201c11.4-2.15,19.58-11.41,30.23-15.34
			c11.5601-4.01,22.38,5.19,33.96,4c3.2301-0.44,6.63-1.99,7.9701-5.17c2.1399-5.17,1.3899-10.95,0.76-16.35
			C1069.1801,912.43,1066.0601,905.39,1064.9,897.91z"/>
	</g>
	<g id="_x23_ca3e3eff">
		<path fill="#CA3E3E" stroke="#CA3E3E" stroke-width="0.0938" d="M928.05,1035.75c12.35-1.29,25.24-1.29,37.03,3.1
			c11.36,3.6,22.44,8.01,33.85,11.4401c5.68,1.9299,11.46-0.36,17.07-1.36c14.73-3.25,29.15-7.89,44.1-10.14
			c9.7001-2.1801,19.8301-2.04,29.59-0.29c9.04,1.77,17.89,4.4399,26.9901,5.95c14.7999,2.17,29.86,0.87,44.4199-2.25
			c-2.9,6.0701-7.2899,11.27-11.01,16.8601c-11.77,15.6899-24.59,30.98-40.7,42.3999c-6.73,4.76-14.4,7.89-21.97,11.02
			c-21.7301,8.96-44.9301,14.11-68.3201,16.02c-34.36,1.8199-69.13-4.84-100.48-18.98c-6.33-3.2001-12.95-6.11-18.31-10.86
			c-8.34-7.37-15.64-15.8301-22.17-24.8201c-5.78-7.76-10.58-16.2-16.38-23.9399c0.9-1.51,2.25-2.78,4.12-2.76
			C886.91,1045.12,906.98,1037.5,928.05,1035.75 M1010.37,1057.39c-6.44-0.97-13.04,0-19.41-1.5601
			c-10.52-1.51-20.44-5.76-30.9901-6.9199c-2.95-0.63-5.21,1.45-7.37,3.0499c0.25,4.0801,4.16,5.88,7.54,6.99
			c10.66,3.4501,21.82,4.9,32.9,6.24c9.94,1.6101,20.02,1.6001,29.98,2.91c6.75,0.35,13.4299-0.9299,20.03-2.1899
			c3.1599-0.67,6.61-0.53,9.4099-2.39c1.27,0.1899,2.5801,0.11,3.87-0.1c6.5-1.2101,13.04-2.2001,19.55-3.3201
			c4.4301-0.8199,9.01-0.61,13.35-1.9399c9.4301-0.42,18.8201-1.9501,27.86-4.6901c-11.87-2.27-24.26-2.24-35.62-6.73
			c-3.9-1.8-8.2899-1.8199-12.48-1.8199C1048.86,1046,1030.3101,1055.15,1010.37,1057.39 M913.07,1081.27
			c6.66,7.2,13.6,14.3199,21.9,19.65c5.65,3.6499,12.53,4.0299,18.9,5.5599c19.41,3.47,39.03,5.73,58.66,7.1
			c4.11,0.9501,8.33,0.4501,12.5,0.8201c9.87,1.39,19.49-2.14,28.97-4.37c2.12-0.5801,4.49-0.6801,6.28-2.0901
			c6.5399-1.1299,12.9399-3.0499,19.13-5.4099c10.74-4.24,19.83-11.75,27.49-20.26c-27.3301,5.15-55.11,7.5-82.88,8.41
			c-14.29-0.0801-28.64,0.5399-42.88-0.92c-4.88-1.5-10.06-0.45-15.05-1.16c-5.81-0.78-11.6201-1.5399-17.46-2.0699
			C936.68,1085.48,924.9,1083.1801,913.07,1081.27z"/>
	</g>
	<g id="_x23_d15858ff">
		<path fill="#D15858" stroke="#D15858" stroke-width="0.0938" d="M1010.37,1057.39c19.9401-2.24,38.49-11.39,58.62-12.47
			c4.1901,0,8.58,0.0199,12.48,1.8199c-1.2,0.47-2.39,0.92-3.58,1.36c-6.1-0.95-12.4301-0.96-18.15,1.61
			c-2.41,0.77-4.8199,1.55-7.17,2.4601c3.52,3.51,8.7401,3.45,13.3401,4.12c7.73,1.23,15.63,0.22,23.3199,1.87
			c-4.34,1.33-8.9199,1.12-13.35,1.9399c-6.51,1.12-13.05,2.11-19.55,3.3201c-1.2899,0.21-2.6,0.2899-3.87,0.1
			c-5.23-1-10.5699-0.24-15.7999-1.0601c-9.89-1.0499-19.84-1.89-29.5601-4.02C1008.17,1058.0601,1009.26,1057.71,1010.37,1057.39z"
			/>
	</g>
	<g id="_x23_d46363ff">
		<path fill="#D46363" stroke="#D46363" stroke-width="0.0938" d="M1077.89,1048.1c1.1899-0.4399,2.38-0.89,3.58-1.36
			c11.36,4.49,23.75,4.46,35.62,6.73c-9.0399,2.74-18.4299,4.27-27.86,4.6901c-7.6899-1.65-15.59-0.64-23.3199-1.87
			c-4.6-0.67-9.8201-0.61-13.3401-4.12c2.3501-0.91,4.76-1.6901,7.17-2.4601c-0.08,0.9301-0.16,1.87-0.23,2.8201
			c5.49,0.6799,11.0699,0.1599,16.54,1.14c2.59,0.2799,5.3099,1.1599,7.8999,0.2899
			C1085.0601,1050.34,1080.24,1049.39,1077.89,1048.1z"/>
	</g>
	<g id="_x23_dd8383ff">
		<path fill="#DD8383" stroke="#DD8383" stroke-width="0.0938" d="M1059.74,1049.71c5.72-2.5699,12.05-2.5599,18.15-1.61
			c2.35,1.29,7.17,2.24,6.0599,5.86c-2.59,0.87-5.3099-0.01-7.8999-0.2899c-5.4701-0.9801-11.05-0.4601-16.54-1.14
			C1059.58,1051.58,1059.66,1050.64,1059.74,1049.71z"/>
	</g>
	<g id="_x23_cd4b4bff">
		<path fill="#CD4B4B" stroke="#CD4B4B" stroke-width="0.0938" d="M952.6,1051.96c2.16-1.6,4.42-3.6799,7.37-3.0499
			c10.55,1.1599,20.47,5.4099,30.9901,6.9199c6.37,1.5601,12.97,0.5901,19.41,1.5601c-1.11,0.3199-2.2,0.67-3.27,1.0499
			c9.72,2.13,19.67,2.9701,29.5601,4.02c5.23,0.8201,10.5699,0.0601,15.7999,1.0601c-2.7999,1.86-6.25,1.72-9.4099,2.39
			c-6.6001,1.26-13.28,2.5399-20.03,2.1899c-9.96-1.3099-20.04-1.2999-29.98-2.91c-11.08-1.34-22.24-2.7899-32.9-6.24
			C956.76,1057.84,952.85,1056.04,952.6,1051.96z"/>
	</g>
	<g id="_x23_cf5050ff">
		<path fill="#CF5050" stroke="#CF5050" stroke-width="0.0938" d="M913.07,1081.27c11.83,1.91,23.61,4.21,35.56,5.26
			c5.84,0.53,11.65,1.2899,17.46,2.0699c4.99,0.7101,10.17-0.34,15.05,1.16c-1.21,1.6899-2.86,4.05-0.61,5.74
			c6.23,4.3199,14.05,5.3,21.3199,6.75c13.92,2.42,27.97,4.01,42.0701,4.85c5.4199,0.7001,10.89,0.9501,16.36,0.84
			c-1.79,1.41-4.16,1.51-6.28,2.0901c-9.48,2.23-19.1,5.76-28.97,4.37c-4.17-0.37-8.39,0.13-12.5-0.8201
			c-19.63-1.37-39.25-3.63-58.66-7.1c-6.37-1.53-13.25-1.91-18.9-5.5599C926.67,1095.59,919.73,1088.47,913.07,1081.27z"/>
	</g>
	<g id="_x23_d35f5fff">
		<path fill="#D35F5F" stroke="#D35F5F" stroke-width="0.0938" d="M1024.02,1090.6801c27.77-0.91,55.5499-3.26,82.88-8.41
			c-7.66,8.51-16.75,16.02-27.49,20.26c-6.1901,2.36-12.5901,4.28-19.13,5.4099c-5.47,0.1101-10.9401-0.1399-16.36-0.84
			c-14.1001-0.84-28.15-2.4299-42.0701-4.85c-7.27-1.45-15.09-2.4301-21.3199-6.75c-2.25-1.6899-0.6-4.05,0.61-5.74
			C995.38,1091.22,1009.73,1090.6,1024.02,1090.6801z"/>
	</g>
	<g id="_x23_bd6a33ff">
		<path fill="#BD6A33" stroke="#BD6A33" stroke-width="0.0938" d="M1096.6899,1287.53c9.0901-1.55,17.9801-4.01,27.03-5.8101
			c-2.09,8.86-4.7999,17.55-7.25,26.3201c-9.1799,0.83-18.3099,2.09-27.48,2.97c-69.63,5.9299-139.88,2.79-209.02-7.05
			c-1.6299-7.0399-3.97-13.88-5.5699-20.9199C947.07,1300.1801,1023.39,1301.83,1096.6899,1287.53z"/>
	</g>
	<g id="_x23_cd804bff">
		<path fill="#CD804B" stroke="#CD804B" stroke-width="0.0938" d="M879.97,1303.96c69.14,9.8401,139.39,12.98,209.02,7.05
			c9.17-0.88,18.3-2.14,27.48-2.97c-4.76,17.46-8.13,35.27-12.27,52.89c13.3601,2.5399,26.79,4.71,40,7.98
			c-44.1599,94.1599-88.5,188.24-132.58,282.4299c-9.65-16.5-18.46-33.5-27.79-50.1899c-39.2-71.47-78.4-142.9301-117.6-214.4
			c-3.24-6.02-6.72-11.91-9.7-18.05c12.22-2.9099,24.59-5.0599,36.9399-7.34C888.94,1342.23,884.48,1323.09,879.97,1303.96z"/>
	</g>
	<g id="_x23_333333ff">
		<path fill="#333333" stroke="#333333" stroke-width="0.0938" d="M718.32,1385.4301c44.01-8.05,88.28-14.75,132.67-20.3301
			c2.88-1.09,4.53,1.27,5.54,3.6c2.98,6.14,6.46,12.03,9.7,18.05c39.2,71.47,78.4,142.9301,117.6,214.4
			c9.33,16.6899,18.14,33.6899,27.79,50.1899c44.08-94.1899,88.42-188.27,132.58-282.4299c0.77-1.48,1.66-2.89,2.63-4.23l1.04,0.08
			c-42.2,89.25-84.03,178.6799-126.11,267.98c-3.81,7.77-7.06,15.8101-11.23,23.38c-52.0601-94.46-103.9901-189-155.94-283.52
			c-1.5-2.14-2.13-6.4399-5.63-5.46c-16.71,1.86-33.34,4.47-50.07,6.21c0.31,0.87,0.65,1.75,1.01,2.65
			c-66.32,10.0601-132.6801,21.46-197.03,40.75c-14.79,4.97-29.74,9.62-43.9,16.24c-9.74,4.49-19.36,9.51-27.7,16.3201
			c-5.12,4.2599-9.89,9.45-11.8,15.99c-9.06,34.87-15.77,70.2899-22.37,105.7c-3.41,22.3101-7.41,44.55-10.01,66.98
			c-7.08,53.09-11.15,106.5601-13.18,160.0801c-1.98,66.6699-1.08,133.5499,5.93,199.9299c64.28,0.33,128.56,0.38,192.83,0.85
			l0.06,1.16H476.01c-5.45-50.79-7.22-101.91-7.01-152.97c0.32-53.8101,3.05-107.62,8.53-161.15c1.92-22.0699,5.13-44,7.82-65.98
			c3.68-22.8201,6.77-45.74,11.38-68.39c4.47-23.95,9.2-47.87,15.01-71.53c2.22-7.96,2.97-16.58,7.62-23.62
			c4.99-7.6899,12.71-13.01,20.35-17.79c17.7599-10.63,37.36-17.61,56.97-23.98C636.48,1402.04,677.36,1393.25,718.32,1385.4301z"/>
		<path fill="#333333" stroke="#333333" stroke-width="0.0938" d="M1149.66,1364.96c14.21,1.05,28.21,3.92,42.34,5.7101
			c23,4.01,46.09,7.51,68.96,12.1899c39.75,7.8101,79.3201,16.92,117.91,29.34c21.95,7.3401,43.85,15.3401,63.92,27.04
			c12.2999,7.47,24.88,16.62,30.51,30.4c18.9199,47.37,31.5499,97.0599,40.2999,147.25c7.02,37.41,11.52,75.24,15.34,113.1
			c5.52,61.17,8.26,122.61,7.8,184.04c0.11,28.6699-0.5699,57.33-1.91,85.97h-3.99c1.25-27.65,2.01-55.3199,1.89-83
			c0.59-79.14-3.59-158.35-13.3199-236.9c-3.01-20.0499-5.3401-40.2-9.3101-60.08c-8.7-50.49-21.26-100.5-40.22-148.17
			c-4.95-12.66-16.35-21.1799-27.49-28.15c-18-11.0499-37.9-18.36-57.71-25.3899c-44.26-14.7201-89.8601-24.9701-135.64-33.7201
			c-22.51-4.24-45.1801-7.7-67.7101-11.71C1170.9399,1369.5699,1160.02,1368.34,1149.66,1364.96z"/>
		<path fill="#333333" stroke="#333333" stroke-width="0.0938" d="M714.5,1999.08c34.81-0.26,69.64,0.2101,104.46,0.24
			c50.12,0.26,100.25,0.26,150.38,0.6801H713.72L714.5,1999.08z"/>
	</g>
	<g id="_x23_782121ff">
		<path fill="#782121" stroke="#782121" stroke-width="0.0938" d="M1147.87,1364.76c0.45,0.05,1.34,0.15,1.79,0.2
			c10.36,3.38,21.2799,4.61,31.6699,7.92c-55.5699,108.84-111.09,217.7-166.6799,326.53c-5.1801-6.3301-9.16-13.53-13.84-20.2201
			C933.83,1578.13,866.82,1477.09,799.9,1376c-0.36-0.9-0.7-1.78-1.01-2.65c16.73-1.74,33.36-4.35,50.07-6.21
			c3.5-0.98,4.13,3.3199,5.63,5.46c51.95,94.52,103.8799,189.0601,155.94,283.52c4.17-7.5699,7.42-15.61,11.23-23.38
			C1063.84,1543.4399,1105.67,1454.01,1147.87,1364.76z"/>
		<path fill="#782121" stroke="#782121" stroke-width="0.0938" d="M1331.46,1720.88c8.0901,93.01,15.5801,186.09,23.4601,279.12
			H1308.97c6.05-75.99,12.04-151.99,18.0701-227.98C1328.52,1754.97,1329.41,1737.86,1331.46,1720.88z"/>
		<path fill="#782121" stroke="#782121" stroke-width="0.0938" d="M692.75,1724.87c1.18,4.27,1.1,8.73,1.43,13.13
			c6.8,87.02,13.55,174.05,20.32,261.08l-0.78,0.92h-40.99l-0.06-1.16c2.72-41.6899,6.17-83.34,9.05-125.02
			C685.53,1824.1801,688.99,1774.52,692.75,1724.87z"/>
	</g>
	<g id="_x23_c83737ff">
		<path fill="#C83737" stroke="#C83737" stroke-width="0.0938" d="M1181.33,1372.88c22.53,4.01,45.2001,7.47,67.7101,11.71
			c45.7799,8.75,91.38,19,135.64,33.7201c19.8099,7.0299,39.71,14.34,57.71,25.3899c11.14,6.9701,22.54,15.49,27.49,28.15
			c18.96,47.67,31.52,97.6801,40.22,148.17c3.97,19.88,6.3,40.03,9.3101,60.08c9.73,78.55,13.9099,157.76,13.3199,236.9
			c0.12,27.6801-0.64,55.35-1.89,83H1354.92c-7.88-93.03-15.37-186.11-23.4601-279.12c-2.0499,16.98-2.9399,34.09-4.4199,51.14
			c-6.03,75.99-12.02,151.99-18.0701,227.98H969.34c-50.13-0.42-100.26-0.42-150.38-0.6801c-34.82-0.0299-69.65-0.5-104.46-0.24
			c-6.77-87.0299-13.52-174.0599-20.32-261.08c-0.33-4.4-0.25-8.86-1.43-13.13c-3.76,49.65-7.22,99.3101-11.03,148.95
			c-2.8799,41.6801-6.33,83.3301-9.05,125.02c-64.27-0.47-128.55-0.52-192.83-0.85c-7.01-66.38-7.91-133.26-5.93-199.9299
			c2.03-53.52,6.1-106.9901,13.18-160.0801c2.6-22.4299,6.6-44.6699,10.01-66.98c6.6-35.41,13.31-70.83,22.37-105.7
			c1.91-6.54,6.6801-11.7301,11.8-15.99c8.34-6.8101,17.96-11.8301,27.7-16.3201c14.16-6.62,29.11-11.27,43.9-16.24
			c64.35-19.29,130.71-30.6899,197.03-40.75c66.92,101.09,133.93,202.13,200.91,303.1899c4.68,6.6901,8.66,13.89,13.84,20.2201
			C1070.24,1590.58,1125.76,1481.72,1181.33,1372.88z"/>
	</g>
</g>
</svg>
